<?xml version="1.0" encoding="utf-8"?>
<!-- Generator: Adobe Illustrator 16.0.0, SVG Export Plug-In . SVG Version: 6.00 Build 0)  -->
<!DOCTYPE svg PUBLIC "-//W3C//DTD SVG 1.0//EN" "http://www.w3.org/TR/2001/REC-SVG-20010904/DTD/svg10.dtd">
<svg version="1.0" id="Layer_1" xmlns="http://www.w3.org/2000/svg" xmlns:xlink="http://www.w3.org/1999/xlink" x="0px" y="0px"
	 width="800px" height="800px" viewBox="0 0 800 800" enable-background="new 0 0 800 800" xml:space="preserve">
<g>
	<path fill="#E6B91E" d="M727.875,218.891H72.109c-23.328,0-42.297,18.984-42.297,42.313v277.602
		c0,23.328,18.969,42.305,42.297,42.305h655.766c23.328,0,42.313-18.977,42.313-42.305V261.203
		C770.188,237.875,751.203,218.891,727.875,218.891L727.875,218.891z"/>
	<rect x="136.414" y="295.602" fill-rule="evenodd" clip-rule="evenodd" fill="#010101" width="54.789" height="211.258"/>
	<path fill-rule="evenodd" clip-rule="evenodd" fill="#010101" d="M308.141,295.602l-12.695,98.719l-7.789-53.656
		c-2.352-17.203-4.5-32.258-6.648-45.063h-71.07v211.258h48.023l0.211-139.469l20.172,139.469h34.203l19.25-142.539l0.102,142.539
		h47.914V295.602H308.141z"/>
	<path fill-rule="evenodd" clip-rule="evenodd" fill="#010101" d="M465.016,506.859c13.109,0,22.938-0.719,29.5-2.148
		c6.438-1.43,11.977-3.891,16.375-7.578c4.406-3.594,7.586-8.602,9.32-14.953c1.844-6.344,2.867-19.039,2.867-37.984v-74.141
		c0-19.969-0.82-33.383-1.945-40.242c-1.227-6.758-4.297-13.008-9.219-18.531c-4.813-5.539-11.977-9.531-21.297-11.977
		c-9.32-2.461-24.68-3.703-51.203-3.703h-40.859v211.258H465.016z M465.531,333.703c2.141,1.227,3.586,3.18,4.203,5.938
		c0.609,2.664,0.922,8.805,0.922,18.328v81.813c0,14.141-0.922,22.742-2.773,25.922c-1.836,3.172-6.648,4.703-14.539,4.703V331.766
		C459.281,331.766,463.375,332.375,465.531,333.703z"/>
	<path fill-rule="evenodd" clip-rule="evenodd" fill="#010101" d="M541.711,295.602v211.258h49.367l3.477-13.414
		c4.398,5.43,9.32,9.414,14.742,12.188c5.438,2.656,13.414,3.992,19.656,3.992c8.609,0,16.18-2.25,22.43-6.859
		c6.352-4.5,10.352-9.93,11.992-16.086c1.742-6.234,2.563-15.656,2.563-28.258v-59.281c0-12.797-0.211-21.102-0.82-24.984
		c-0.523-3.891-2.266-7.891-5.023-11.992c-2.867-4.094-6.859-7.258-12.188-9.523c-5.43-2.25-11.672-3.375-18.953-3.375
		c-6.242,0-14.328,1.234-19.758,3.797c-5.32,2.453-10.242,6.242-14.641,11.258v-68.719H541.711z M613.094,455.664
		c0,10.141-0.516,16.688-1.539,19.352s-5.43,3.984-8.813,3.984c-3.266,0-5.43-1.219-6.547-3.875c-1.023-2.563-1.641-8.5-1.641-17.82
		v-55.813c0-9.633,0.508-15.57,1.438-18.031c1.023-2.352,3.172-3.578,6.344-3.578c3.375,0,7.875,1.438,9.016,4.102
		c1.125,2.758,1.742,8.602,1.742,17.508V455.664z"/>
</g>
</svg>
